<?xml version="1.0" encoding="utf-8"?>
<!-- Generator: Adobe Illustrator 26.3.1, SVG Export Plug-In . SVG Version: 6.00 Build 0)  -->
<svg version="1.1" id="Layer_1" xmlns="http://www.w3.org/2000/svg" xmlns:xlink="http://www.w3.org/1999/xlink" x="0px" y="0px"
	 viewBox="0 0 250 250" style="enable-background:new 0 0 250 250;" xml:space="preserve">
<style type="text/css">
	.st0{fill:#E4523F;}
</style>
<g>
	<g>
		<g>
			<path class="st0" d="M124.86,211.86c-13.67,0-24.07-3.65-29.18-5.44c-0.61-0.21-1.12-0.39-1.54-0.53
				c-2.02-0.66-3.13-2.83-2.47-4.86c0.66-2.02,2.82-3.13,4.86-2.47c0.47,0.15,1.04,0.35,1.71,0.59c9.14,3.21,36.95,12.97,69.29-8.91
				c17.38-11.75,29.36-29.22,33.74-49.19c4.36-19.9,0.65-39.9-10.46-56.32c-16.98-25.09-48.35-31.7-62.68-31.7
				c-0.04,0-0.09,0-0.13,0c-2.12,0-3.85-1.72-3.85-3.84c-0.01-2.13,1.72-3.86,3.84-3.86c0.06,0,0.11,0,0.17,0
				c21.85,0,52.71,10.96,69.03,35.09c12.3,18.18,16.42,40.3,11.6,62.28c-4.8,21.91-17.92,41.06-36.94,53.92
				C154.36,208.44,138.08,211.86,124.86,211.86z"/>
		</g>
		<g>
			<path class="st0" d="M64.19,183.13c-1.01,0-2.01-0.39-2.77-1.17c-16.36-16.92-24.6-39.92-22.61-63.11
				C40.8,95.77,52.83,75.08,72.7,60.58c1.72-1.26,4.13-0.88,5.38,0.84c1.25,1.72,0.88,4.13-0.84,5.38
				C59.2,79.97,48.28,98.69,46.49,119.5c-1.8,20.97,5.66,41.78,20.47,57.1c1.48,1.53,1.44,3.97-0.09,5.45
				C66.13,182.77,65.16,183.13,64.19,183.13z"/>
		</g>
		<g>
			<path class="st0" d="M74.01,241.76c-2.23,0-4.33-0.51-6.27-1.52c-20.8-10.85-6.75-81.23,18.75-132.28
				c14.83-29.7,32.45-55.85,49.6-73.63c18.41-19.09,33.97-26.28,44.96-20.78c15.79,7.89,7.54,40.11,1.07,54.48
				c-0.88,1.94-3.15,2.8-5.1,1.93c-1.94-0.87-2.8-3.15-1.93-5.09c7.61-16.89,10.42-40.47,2.51-44.42
				c-7.36-3.68-20.81,3.51-35.97,19.24c-16.62,17.23-33.76,42.7-48.25,71.72c-28.69,57.45-33.97,115.8-22.08,122
				c1.56,0.81,3.44,0.86,5.73,0.12c9.82-3.15,22.43-19.04,27.38-28.81c0.96-1.9,3.28-2.66,5.18-1.69c1.9,0.96,2.66,3.28,1.69,5.18
				c-5.64,11.12-19.26,28.61-31.9,32.67C77.52,241.47,75.72,241.76,74.01,241.76z"/>
		</g>
	</g>
	<g>
		<path class="st0" d="M97.93,207.18c-0.35,0-0.71-0.05-1.07-0.15c-4.43-1.28-7.8-4.24-9.77-8.55c-4.06-8.91-1.96-23.52,5.74-40.07
			c0.9-1.93,3.19-2.76,5.12-1.87c1.93,0.9,2.77,3.19,1.87,5.12c-6.56,14.08-8.74,26.97-5.72,33.63c1.03,2.27,2.63,3.69,4.89,4.34
			c2.04,0.59,3.22,2.73,2.63,4.77C101.14,206.08,99.6,207.18,97.93,207.18z"/>
	</g>
</g>
</svg>
