<?xml version="1.0" encoding="UTF-8"?>
<svg xmlns="http://www.w3.org/2000/svg" xmlns:xlink="http://www.w3.org/1999/xlink" width="382px" height="512px" viewBox="0 0 382 509" version="1.1">
<g id="surface1">
<path style=" stroke:none;fill-rule:nonzero;fill:rgb(21.960784%,12.54902%,30.980392%);fill-opacity:1;" d="M 191.488281 442.816406 C 161.226562 442.816406 138.1875 434.746094 126.875 430.839844 L 123.460938 429.65625 C 118.980469 428.199219 116.53125 423.390625 117.984375 418.914062 C 119.441406 414.4375 124.253906 411.988281 128.734375 413.441406 C 129.78125 413.785156 131.039062 414.222656 132.523438 414.746094 C 152.761719 421.839844 214.363281 443.445312 285.96875 395.015625 C 324.453125 369.011719 350.984375 330.339844 360.675781 286.164062 C 370.367188 241.984375 362.171875 197.835938 337.515625 161.53125 C 299.914062 105.945312 230.449219 91.320312 198.722656 91.320312 L 198.4375 91.320312 C 193.863281 91.128906 190.257812 87.367188 190.257812 82.792969 C 190.257812 78.222656 193.863281 74.460938 198.4375 74.269531 L 198.8125 74.269531 C 247.183594 74.269531 315.523438 98.535156 351.613281 151.9375 C 378.863281 192.175781 387.984375 241.117188 377.304688 289.769531 C 366.621094 338.425781 337.621094 380.628906 295.511719 409.101562 C 256.816406 435.253906 220.773438 442.816406 191.488281 442.816406 Z M 191.488281 442.816406 "/>
<path style=" stroke:none;fill-rule:nonzero;fill:rgb(21.960784%,12.54902%,30.980392%);fill-opacity:1;" d="M 57.234375 379.234375 C 54.917969 379.238281 52.703125 378.304688 51.089844 376.644531 C 14.949219 339.523438 -3.335938 288.582031 0.953125 236.96875 C 5.339844 185.917969 31.992188 140.125 75.972656 108.027344 C 79.773438 105.25 85.109375 106.078125 87.890625 109.875 C 90.667969 113.675781 89.839844 119.007812 86.039062 121.785156 C 46.101562 150.933594 21.910156 192.355469 17.953125 238.4375 C 14.046875 285.113281 30.558594 331.199219 63.226562 364.789062 C 65.589844 367.226562 66.28125 370.839844 64.980469 373.980469 C 63.675781 377.117188 60.632812 379.183594 57.234375 379.234375 Z M 57.234375 379.234375 "/>
<path style=" stroke:none;fill-rule:nonzero;fill:rgb(21.960784%,12.54902%,30.980392%);fill-opacity:1;" d="M 78.894531 509 C 74.054688 509.027344 69.28125 507.871094 64.992188 505.632812 C 18.941406 481.679688 50.011719 325.863281 106.519531 212.898438 C 139.355469 147.175781 178.425781 89.316406 216.339844 49.957031 C 257.132812 7.710938 291.570312 -8.1875 315.914062 3.96875 C 350.847656 21.421875 332.617188 92.816406 318.28125 124.539062 C 316.265625 128.695312 311.304688 130.492188 307.089844 128.597656 C 302.878906 126.699219 300.9375 121.796875 302.714844 117.535156 C 319.570312 80.109375 325.800781 27.964844 308.289062 19.222656 C 291.992188 11.09375 262.210938 26.945312 228.625 61.796875 C 191.816406 99.929688 153.871094 156.308594 121.769531 220.488281 C 58.234375 347.660156 46.550781 476.796875 72.886719 490.511719 C 76.332031 492.324219 80.480469 492.414062 85.574219 490.78125 C 107.328125 483.804688 135.234375 448.652344 146.214844 427.019531 C 148.347656 422.824219 153.476562 421.148438 157.675781 423.277344 C 161.875 425.40625 163.550781 430.535156 161.421875 434.730469 C 148.941406 459.34375 118.757812 498.042969 90.773438 507.007812 C 86.941406 508.289062 82.933594 508.960938 78.894531 509 Z M 78.894531 509 "/>
<path style=" stroke:none;fill-rule:nonzero;fill:rgb(21.960784%,12.54902%,30.980392%);fill-opacity:1;" d="M 131.851562 432.457031 C 131.050781 432.457031 130.253906 432.34375 129.484375 432.125 C 119.789062 429.386719 111.84375 422.433594 107.851562 413.1875 C 98.863281 393.472656 103.507812 361.152344 120.570312 324.515625 C 122.558594 320.25 127.632812 318.40625 131.902344 320.394531 C 136.171875 322.382812 138.019531 327.453125 136.03125 331.71875 C 121.511719 362.886719 116.675781 391.390625 123.371094 406.136719 C 125.304688 410.84375 129.308594 414.390625 134.21875 415.75 C 138.304688 416.917969 140.90625 420.921875 140.308594 425.132812 C 139.714844 429.339844 136.101562 432.464844 131.851562 432.457031 Z M 131.851562 432.457031 "/>
</g>
</svg>
